<svg xmlns="http://www.w3.org/2000/svg" width="678.73" height="88.56" viewBox="0 0 678.73 88.56">
  <defs>
    <style>
      .cls-1 {
        fill: #f3651f;
      }
    </style>
  </defs>
  <title>bouton-sinscrire-desmaintenant</title>
  <g id="Calque_2" data-name="Calque 2">
    <g id="Calque_2-2" data-name="Calque 2">
      <path class="cls-1" d="M0,44.28a43.94,43.94,0,0,1,.85-8.64A44.3,44.3,0,0,1,35.64.85,43.94,43.94,0,0,1,44.28,0H634.45a44.24,44.24,0,0,1,31.31,13,44.13,44.13,0,0,1,9.6,14.37,44.29,44.29,0,0,1,0,33.89,44.94,44.94,0,0,1-4.09,7.65,44.41,44.41,0,0,1-5.51,6.71,44.13,44.13,0,0,1-14.37,9.6,43,43,0,0,1-8.3,2.52,44.09,44.09,0,0,1-8.64.85H44.28a43.94,43.94,0,0,1-8.64-.85,43,43,0,0,1-8.3-2.52A44.32,44.32,0,0,1,7.46,68.88a44.25,44.25,0,0,1-4.09-7.65A44.74,44.74,0,0,1,.85,52.92,43.94,43.94,0,0,1,0,44.28Z"/>
    </g>
  </g>
</svg>
