<svg xmlns="http://www.w3.org/2000/svg" width="174" height="49" viewBox="0 0 174 49">
  <defs>
    <style>
      .cls-1 {
        fill: none;
        stroke: #00dec6;
        stroke-width: 3px;
      }
    </style>
  </defs>
  <title>Fichier 2</title>
  <g id="Calque_2" data-name="Calque 2">
    <g id="Calque_2-2" data-name="Calque 2">
      <path class="cls-1" d="M1.5,24.5A23.33,23.33,0,0,1,1.94,20a23,23,0,0,1,3.44-8.29,23.14,23.14,0,0,1,6.34-6.34A23,23,0,0,1,20,1.94,23.33,23.33,0,0,1,24.5,1.5h125a23.33,23.33,0,0,1,4.49.44,23,23,0,0,1,8.29,3.44,23.14,23.14,0,0,1,6.34,6.34A23,23,0,0,1,172.06,20a23.13,23.13,0,0,1,0,9,23,23,0,0,1-3.44,8.29,23.14,23.14,0,0,1-6.34,6.34A23,23,0,0,1,154,47.06a23.33,23.33,0,0,1-4.49.44H24.5A23.33,23.33,0,0,1,20,47.06a23,23,0,0,1-8.29-3.44,23.14,23.14,0,0,1-6.34-6.34A23,23,0,0,1,1.94,29,23.33,23.33,0,0,1,1.5,24.5Z"/>
    </g>
  </g>
</svg>
