<svg xmlns="http://www.w3.org/2000/svg" width="441" height="441" viewBox="0 0 441 441">
  <defs>
    <style>
      .cls-1 {
        fill: #fff;
      }
    </style>
  </defs>
  <title>carreblanccube</title>
  <g id="Calque_2" data-name="Calque 2">
    <g id="Calque_2-2" data-name="Calque 2">
      <path class="cls-1" d="M0,417V24a23.65,23.65,0,0,1,.46-4.68,23.39,23.39,0,0,1,1.37-4.5A23.92,23.92,0,0,1,4,10.67,24.14,24.14,0,0,1,10.67,4a23.92,23.92,0,0,1,4.15-2.21A23.39,23.39,0,0,1,19.32.46,23.65,23.65,0,0,1,24,0H417a23.65,23.65,0,0,1,4.68.46,23.39,23.39,0,0,1,4.5,1.37A23.92,23.92,0,0,1,430.33,4,24.14,24.14,0,0,1,437,10.67a23.92,23.92,0,0,1,2.21,4.15,23.39,23.39,0,0,1,1.37,4.5A23.65,23.65,0,0,1,441,24V417a23.65,23.65,0,0,1-.46,4.68,23.39,23.39,0,0,1-1.37,4.5,23.92,23.92,0,0,1-2.21,4.15,24.14,24.14,0,0,1-6.63,6.63,23.92,23.92,0,0,1-4.15,2.21,23.39,23.39,0,0,1-4.5,1.37A23.65,23.65,0,0,1,417,441H24a23.65,23.65,0,0,1-4.68-.46,23.39,23.39,0,0,1-4.5-1.37A23.92,23.92,0,0,1,10.67,437,24.14,24.14,0,0,1,4,430.33a23.92,23.92,0,0,1-2.21-4.15,23.39,23.39,0,0,1-1.37-4.5A23.65,23.65,0,0,1,0,417Z"/>
    </g>
  </g>
</svg>
