<svg xmlns="http://www.w3.org/2000/svg" width="276.45" height="60.95" viewBox="0 0 276.45 60.95">
  <defs>
    <style>
      .cls-1 {
        fill: #f3651f;
      }
    </style>
  </defs>
  <title>Fichier 3</title>
  <g id="Calque_2" data-name="Calque 2">
    <g id="Calque_2-2" data-name="Calque 2">
      <path class="cls-1" d="M0,30.47A30.43,30.43,0,0,1,5.14,13.54a30.71,30.71,0,0,1,8.4-8.4A30.58,30.58,0,0,1,30.47,0H246a30.43,30.43,0,0,1,16.93,5.14,30.71,30.71,0,0,1,8.4,8.4,30.29,30.29,0,0,1,4.55,11,30.42,30.42,0,0,1-4.55,22.87A30,30,0,0,1,267.52,52a30.48,30.48,0,0,1-4.61,3.79,30.29,30.29,0,0,1-11,4.55A30.37,30.37,0,0,1,246,61H30.47a30.37,30.37,0,0,1-5.94-.59,30.29,30.29,0,0,1-11-4.55A30.48,30.48,0,0,1,8.93,52,30.42,30.42,0,0,1,.59,36.42,30.47,30.47,0,0,1,0,30.47Z"/>
    </g>
  </g>
</svg>
