<svg xmlns="http://www.w3.org/2000/svg" width="1920" height="737" viewBox="0 0 1920 737">
  <defs>
    <style>
      .cls-1 {
        fill: #f6f7fb;
      }
    </style>
  </defs>
  <title>shape3</title>
  <g id="Calque_2" data-name="Calque 2">
    <g id="Calque_2-2" data-name="Calque 2">
      <path class="cls-1" d="M0,634V103q0-5.06.5-10.1c.33-3.35.82-6.69,1.48-10s1.48-6.58,2.46-9.81a100.74,100.74,0,0,1,3.4-9.52q1.94-4.66,4.32-9.13a99.89,99.89,0,0,1,5.2-8.67q2.81-4.22,6-8.12A103.24,103.24,0,0,1,37.66,23.38q3.92-3.21,8.12-6a99.89,99.89,0,0,1,8.67-5.2q4.45-2.38,9.13-4.32a100.74,100.74,0,0,1,9.52-3.4Q77.94,3,82.91,2c3.3-.66,6.64-1.15,10-1.48S99.63,0,103,0H1817q5.05,0,10.1.5c3.35.33,6.69.82,10,1.48s6.58,1.48,9.81,2.46a100.74,100.74,0,0,1,9.52,3.4q4.66,1.94,9.13,4.32a99.89,99.89,0,0,1,8.67,5.2q4.21,2.81,8.12,6a103.24,103.24,0,0,1,14.28,14.28q3.21,3.92,6,8.12a99.89,99.89,0,0,1,5.2,8.67q2.39,4.45,4.32,9.13a100.74,100.74,0,0,1,3.4,9.52q1.47,4.84,2.46,9.81c.66,3.3,1.15,6.64,1.48,10s.5,6.73.5,10.1V634q0,5.06-.5,10.1c-.33,3.35-.82,6.69-1.48,10s-1.48,6.58-2.46,9.81a100.74,100.74,0,0,1-3.4,9.52q-1.94,4.67-4.32,9.13a99.89,99.89,0,0,1-5.2,8.67q-2.81,4.21-6,8.12a103.24,103.24,0,0,1-14.28,14.28q-3.91,3.21-8.12,6a99.89,99.89,0,0,1-8.67,5.2q-4.46,2.38-9.13,4.32a100.74,100.74,0,0,1-9.52,3.4q-4.85,1.47-9.81,2.46c-3.3.66-6.64,1.15-10,1.48s-6.73.5-10.1.5H103q-5.06,0-10.1-.5c-3.35-.33-6.69-.82-10-1.48s-6.58-1.48-9.81-2.46a100.74,100.74,0,0,1-9.52-3.4q-4.66-1.93-9.13-4.32a99.89,99.89,0,0,1-8.67-5.2q-4.22-2.8-8.12-6a103.24,103.24,0,0,1-14.28-14.28q-3.21-3.92-6-8.12a99.89,99.89,0,0,1-5.2-8.67q-2.38-4.45-4.32-9.13a100.74,100.74,0,0,1-3.4-9.52Q3,659.06,2,654.09c-.66-3.3-1.15-6.64-1.48-10S0,637.37,0,634Z"/>
    </g>
  </g>
</svg>
