<svg xmlns="http://www.w3.org/2000/svg" width="6615.89" height="2869.15" viewBox="0 0 6615.89 2869.15">
  <defs>
    <style>
      .cls-1 {
        fill: #00dec6;
      }
    </style>
  </defs>
  <title>Fichier 1</title>
  <g id="Calque_2" data-name="Calque 2">
    <g id="Calque_1-2" data-name="Calque 1">
      <path class="cls-1" d="M6601.08,2869.15c-118.82-130.92-261.69-233.33-404.05-335.53-511.9-367.46-1079.44-616.69-1683.1-789.61C3937,1578.76,3346.31,1516.32,2749.14,1489.75c-564.65-25.13-1128.72-1.8-1693.07,1.44-232.93,1.33-468,12.73-698-37.38-197.79-43.1-340.34-192.38-356.3-362.45C-10.39,961.58,40.7,853.24,126.61,761.14c112.71-120.8,256.13-189.92,415.9-221.06,725.41-141.4,1451.76-277.74,2183.66-382C3232.55,85.93,3740,21.92,4251.72,3.28c356.63-13,710.65,9.24,1051.18,128.67,443.65,155.6,732.86,471.14,918.48,893.85,167.09,380.52,244.27,783.78,307,1190.78,29.7,192.66,54.89,386,80.62,579.26,3.17,23.87,17.74,51.53-8.42,73Z"/>
    </g>
  </g>
</svg>
