<svg xmlns="http://www.w3.org/2000/svg" width="6514.12" height="2986.02" viewBox="0 0 6514.12 2986.02">
  <defs>
    <style>
      .cls-1 {
        fill: #00dec6;
      }
    </style>
  </defs>
  <title>shape4</title>
  <g id="Calque_2" data-name="Calque 2">
    <g id="Calque_2-2" data-name="Calque 2">
      <path class="cls-1" d="M16.56,2986c111.81-136.95,249.12-246.7,385.94-356.21,492-393.74,1045.68-672.34,1639.46-876.61C2609.41,1558,3196.07,1464.71,3791,1406.93c562.56-54.65,1127.07-60.88,1690.82-87.18,232.69-10.85,468-11.78,695.08-73.86,195.27-53.39,329.81-209.92,336.84-380.6,5.37-130.23-51.32-235.75-141.94-323.23-118.88-114.74-265.72-176.25-426.9-199C5213.12,239.83,4480.62,141.69,3744.27,75.87,3234.81,30.33,2724.67-7,2212.71,1.13c-356.82,5.69-709.2,46.42-1043,183.51-434.9,178.61-707.2,508.85-870.44,940.7C152.32,1514.08,96.35,1920.82,55,2330.55c-19.57,193.94-34.6,388.36-50.19,582.68-1.92,24-15,52.39,12.24,72.49Z"/>
    </g>
  </g>
</svg>
