<svg xmlns="http://www.w3.org/2000/svg" width="51.31" height="51.31" viewBox="0 0 51.31 51.31">
  <defs>
    <style>
      .cls-1 {
        fill: #ff6c00;
      }
    </style>
  </defs>
  <title>calculatesmallorange_1</title>
  <g id="Calque_2" data-name="Calque 2">
    <g id="Calque_4" data-name="Calque 4">
      <path class="cls-1" d="M42.21,13.69,35.07,6.55c0,2.22,0,4.52,0,6.81,0,.22,0,.33.3.33Zm-20,.88V2.84c0-.85-.29-1.13-1.15-1.13H2.86C2,1.71,1.71,2,1.71,2.84V26.23c0,.86.28,1.13,1.14,1.13H21.09c.88,0,1.15-.27,1.15-1.17ZM6,51.31c0-.19,0-.37,0-.55,0-7,0-14.06,0-21.09,0-.54-.16-.63-.64-.61-.93,0-1.87,0-2.8,0A2.53,2.53,0,0,1,0,26.49q0-12,0-23.9A2.55,2.55,0,0,1,2.61,0H21.3A2.57,2.57,0,0,1,24,2.66c0,.76,0,.76.75.76h9.42a1,1,0,0,1,.74.3Q39.93,8.81,45,13.88a.9.9,0,0,1,.3.69q0,6.2,0,12.38c0,.3,0,.46-.4.42a4.51,4.51,0,0,0-.9,0c-.37,0-.43-.12-.42-.45,0-3.68,0-7.35,0-11,0-.44-.12-.51-.52-.51-3.07,0-6.15,0-9.22,0-.41,0-.53-.09-.52-.51,0-3.09,0-6.18,0-9.27,0-.42-.12-.52-.53-.51H24.43c-.4,0-.49.1-.49.49,0,6.84,0,13.69,0,20.54A2.78,2.78,0,0,1,21,29.09c-4.28-.07-8.55,0-12.83,0-.38,0-.5.08-.49.48q0,9.8,0,19.59c0,.42.14.48.51.48H43.11c.44,0,.5-.13.5-.53,0-3.07,0-6.14,0-9.22,0-.39.07-.59.51-.53s.91-.17,1.14.1.07.73.07,1.11V51.11a1.5,1.5,0,0,1,0,.2Z"/>
      <path class="cls-1" d="M47.55,31.59a1.77,1.77,0,0,0-.17-.2c-.32-.32-.62-.66-1-.95s-.33.14-.48.24-.3.18-.09.38.56.56.85.84c.08.07.14.25.32.11S47.37,31.72,47.55,31.59Zm2-2.51a.85.85,0,0,0-.65-.8,1.3,1.3,0,0,0-1.31.73c-.14.31.25.39.39.58a4.42,4.42,0,0,0,.53.53c.06.07.11.17.24.12A2.07,2.07,0,0,0,49.58,29.08Zm-3.87,4.21c-.31-.29-.63-.56-.91-.87s-.36-.26-.61,0L33.78,42.83a1.38,1.38,0,0,0-.32.44l-.87,1.89A7.46,7.46,0,0,0,35.06,44L45.34,33.69Zm5.6-3.63a8.56,8.56,0,0,1-2.23,2.7q-6.45,6.47-12.92,12.92a2.67,2.67,0,0,1-.89.63c-1.32.59-2.63,1.2-3.94,1.81a.91.91,0,0,1-1.15-.1.92.92,0,0,1-.08-1.15l0,0a27.56,27.56,0,0,1,2.06-4.31,27.27,27.27,0,0,1,3.3-3.42c3.76-3.76,7.54-7.51,11.29-11.29a2.58,2.58,0,0,1,4.43,1.15s.06.07.1.1Z"/>
      <path class="cls-1" d="M26.51,39.34a6.84,6.84,0,1,0-6.85,6.84A6.86,6.86,0,0,0,26.51,39.34Zm1.71,0a8.55,8.55,0,1,1-8.46-8.61A8.56,8.56,0,0,1,28.22,39.39Z"/>
      <path class="cls-1" d="M35.91,26.51c-1.55,0-3.1,0-4.66,0-.34,0-.49,0-.48-.45,0-1.27,0-1.27,1.26-1.27h8.52c.42,0,.52.12.51.53,0,1.19,0,1.19-1.19,1.19Z"/>
      <path class="cls-1" d="M35.9,23.08c-1.55,0-3.1,0-4.65,0-.41,0-.49-.12-.48-.5,0-1.22,0-1.22,1.2-1.22,2.85,0,5.71,0,8.56,0,.39,0,.54.07.53.51,0,1.21,0,1.21-1.21,1.21Z"/>
      <path class="cls-1" d="M35.93,28.23h4.7c.31,0,.43.05.43.4,0,1.32,0,1.32-1.32,1.32-2.83,0-5.66,0-8.5,0-.36,0-.52-.08-.47-.47s-.18-.95.1-1.18.76-.07,1.16-.07C33.33,28.22,34.63,28.23,35.93,28.23Z"/>
      <path class="cls-1" d="M35.87,19.66c-1.55,0-3.1,0-4.65,0-.33,0-.49-.05-.45-.43s-.17-.94.08-1.2.79-.08,1.2-.09c2.82,0,5.64,0,8.45,0,.41,0,.58.06.57.53,0,1.19,0,1.19-1.2,1.19Z"/>
      <path class="cls-1" d="M27.36,25.63c0-.83,0-.83.83-.83s.88,0,.88.88,0,.83-.83.83S27.36,26.51,27.36,25.63Z"/>
      <path class="cls-1" d="M28.21,21.37c.86,0,.86,0,.86.85s0,.86-.85.86-.86,0-.86-.84S27.36,21.37,28.21,21.37Z"/>
      <path class="cls-1" d="M29.07,29.11c0,.83,0,.83-.83.83s-.88,0-.88-.89,0-.82.83-.82S29.07,28.23,29.07,29.11Z"/>
      <path class="cls-1" d="M29.07,18.84c0,.82,0,.82-.83.82s-.88,0-.88-.88,0-.83.84-.83S29.07,18,29.07,18.84Z"/>
      <path class="cls-1" d="M12,6.83c2.42,0,4.84,0,7.26,0,.38,0,.48-.09.46-.46a10.15,10.15,0,0,1,0-1.56c0-.42-.08-.55-.53-.55-4.28,0-8.55,0-12.82,0-.57,0-1.14,0-1.71,0-.27,0-.34.08-.33.34,0,.58,0,1.17,0,1.75,0,.37.07.48.45.47C7.14,6.82,9.54,6.83,12,6.83Zm0,1.71H3.05c-.39,0-.49-.1-.48-.49,0-1.69,0-3.37,0-5.06,0-.36.1-.43.44-.43q9,0,17.93,0c.36,0,.44.09.44.44,0,1.7,0,3.41,0,5.11,0,.36-.1.43-.45.43Z"/>
      <path class="cls-1" d="M18,24.8c.84,0,.84,0,.84-.87v-.05c0-.8,0-.8-.82-.8s-.89,0-.89.87S17.11,24.8,18,24.8Zm-2.58-.87v-.8a1.69,1.69,0,0,1,1.73-1.75q.82,0,1.65,0a1.71,1.71,0,0,1,1.75,1.75q0,.82,0,1.65a1.7,1.7,0,0,1-1.67,1.72c-.55,0-1.1,0-1.65,0a1.71,1.71,0,0,1-1.81-1.83Z"/>
      <path class="cls-1" d="M12,23.08c-.86,0-.86,0-.86.86s0,.86.85.86.86,0,.86-.85S12.83,23.08,12,23.08Zm2.55.86c0,.27,0,.53,0,.8a1.67,1.67,0,0,1-1.66,1.76,17.22,17.22,0,0,1-1.76,0,1.67,1.67,0,0,1-1.69-1.78c0-.53,0-1.06,0-1.6a1.68,1.68,0,0,1,1.63-1.74,16.49,16.49,0,0,1,1.86,0,1.69,1.69,0,0,1,1.62,1.76C14.54,23.4,14.53,23.67,14.53,23.94Z"/>
      <path class="cls-1" d="M6,24.8c.87,0,.87,0,.87-.89s0-.83-.83-.83-.88,0-.88.89S5.12,24.8,6,24.8Zm2.58-.86c0,.32,0,.64,0,.95a1.6,1.6,0,0,1-1.45,1.58,13.39,13.39,0,0,1-2.1,0,1.65,1.65,0,0,1-1.56-1.66c0-.56,0-1.13,0-1.7a1.7,1.7,0,0,1,1.65-1.74q.9,0,1.8,0a1.69,1.69,0,0,1,1.67,1.76c0,.27,0,.53,0,.8Z"/>
      <path class="cls-1" d="M18,18.82c.85,0,.85,0,.85-.86s0-.85-.86-.85-.85,0-.85.86S17.11,18.82,18,18.82Zm0-3.42c.28,0,.56,0,.85,0a1.68,1.68,0,0,1,1.7,1.67,17,17,0,0,1,0,1.75,1.69,1.69,0,0,1-1.69,1.69,17,17,0,0,1-1.75,0,1.68,1.68,0,0,1-1.67-1.7c0-.55,0-1.1,0-1.66a1.68,1.68,0,0,1,1.76-1.76Z"/>
      <path class="cls-1" d="M6.83,18c0-.86,0-.86-.84-.86s-.87,0-.87.85,0,.86.86.86S6.83,18.82,6.83,18Zm1.71,0c0,.28,0,.56,0,.85a1.7,1.7,0,0,1-1.7,1.73c-.57,0-1.14,0-1.7,0A1.73,1.73,0,0,1,3.42,18.8c0-.57,0-1.14,0-1.7a1.68,1.68,0,0,1,1.69-1.69c.57,0,1.13,0,1.7,0a1.67,1.67,0,0,1,1.73,1.74C8.55,17.41,8.54,17.68,8.54,18Z"/>
      <path class="cls-1" d="M6.83,12c0-.87,0-.87-.88-.87s-.82,0-.82.84,0,.87.89.87S6.83,12.83,6.83,12ZM6.06,9.41c1.88-.15,2.63.63,2.49,2.5,0,.33,0,.67,0,1a1.68,1.68,0,0,1-1.65,1.62c-.58,0-1.17,0-1.75,0a1.7,1.7,0,0,1-1.72-1.67c0-.58,0-1.17,0-1.75A1.7,1.7,0,0,1,5.16,9.42Z"/>
      <path class="cls-1" d="M12.83,18c0-.89,0-.89-.87-.89s-.84,0-.84.86,0,.85.87.85S12.83,18.82,12.83,18ZM9.42,18c0-.31,0-.63,0-.95A1.64,1.64,0,0,1,11,15.42a16.68,16.68,0,0,1,2,0,1.64,1.64,0,0,1,1.57,1.64c0,.58,0,1.17,0,1.75a1.68,1.68,0,0,1-1.62,1.71,16.31,16.31,0,0,1-1.85,0,1.69,1.69,0,0,1-1.64-1.74c0-.26,0-.53,0-.8Z"/>
      <path class="cls-1" d="M18.82,12c0-.89,0-.89-.87-.89s-.84,0-.84.82,0,.89.87.89S18.82,12.83,18.82,12ZM18,9.42h.85a1.68,1.68,0,0,1,1.72,1.66q0,.9,0,1.8a1.69,1.69,0,0,1-1.73,1.65h-1.7a1.66,1.66,0,0,1-1.68-1.64c0-.61,0-1.23,0-1.85A1.65,1.65,0,0,1,17.1,9.42Z"/>
      <path class="cls-1" d="M12,11.12c-.86,0-.86,0-.86.84v0c0,.82,0,.82.82.82s.89,0,.89-.86S12.83,11.12,12,11.12Zm0,3.41h-.9a1.68,1.68,0,0,1-1.66-1.65q0-.9,0-1.8a1.66,1.66,0,0,1,1.64-1.66q.9,0,1.8,0a1.67,1.67,0,0,1,1.67,1.69c0,.57,0,1.14,0,1.7a1.69,1.69,0,0,1-1.7,1.72Z"/>
      <path class="cls-1" d="M17.22,41.05a1.15,1.15,0,0,1,1,.4,2.5,2.5,0,0,0,2.85,0,.48.48,0,0,0,0-.86,2.38,2.38,0,0,0-1.51-.42,4.11,4.11,0,0,1-2.18-.64,2.18,2.18,0,0,1,0-3.86,2.25,2.25,0,0,1,.62-.31c.51-.14.95-.29.79-1,0-.17.08-.22.24-.21h.65c.75,0,.76,0,.81.71,0,.18.06.25.24.29a3.76,3.76,0,0,1,1.23.54,2.57,2.57,0,0,1,.91,1c.32.71.24.83-.54.83h-.65a.48.48,0,0,1-.44-.23,2.46,2.46,0,0,0-3.15-.11.45.45,0,0,0,.07.73,2.28,2.28,0,0,0,1.45.46,4.32,4.32,0,0,1,1.84.39,2.28,2.28,0,0,1,0,4.34,1.48,1.48,0,0,1-.42.17c-.45,0-.64.26-.55.71s-.08.42-.38.39a5.13,5.13,0,0,0-1,0c-.32,0-.42-.11-.37-.4s-.11-.58-.51-.7a2.72,2.72,0,0,1-2-1.8c-.13-.41-.06-.6.41-.53A3.91,3.91,0,0,0,17.22,41.05Z"/>
    </g>
  </g>
</svg>
