<svg xmlns="http://www.w3.org/2000/svg" width="51.44" height="45.39" viewBox="0 0 51.44 45.39">
  <defs>
    <style>
      .cls-1 {
        fill: #ff6c00;
      }
    </style>
  </defs>
  <title>codingsmallorange_1</title>
  <g id="Calque_2" data-name="Calque 2">
    <g id="Calque_2-2" data-name="Calque 2">
      <path class="cls-1" d="M25.72,11.92c7.8,0,15.6,0,23.4,0,.53,0,.63-.15.62-.64,0-1.82,0-3.65,0-5.47a4,4,0,0,0-4.08-4.11q-19.93,0-39.87,0A4,4,0,0,0,1.7,5.82c0,1.84,0,3.69,0,5.53,0,.45.11.58.58.58C10.08,11.91,17.9,11.92,25.72,11.92Zm0,1.69H2.29c-.42,0-.6.06-.6.56q0,12.65,0,25.31a4,4,0,0,0,4.23,4.22H45.5a5.29,5.29,0,0,0,.8,0,4,4,0,0,0,3.43-4.07V14.26c0-.71.11-.65-.63-.65ZM0,40.67V4.81A2.51,2.51,0,0,0,.27,4,5.75,5.75,0,0,1,5.94,0H46a5.69,5.69,0,0,1,5.46,5.62q0,17.07,0,34.15a5.65,5.65,0,0,1-5.53,5.6q-20.19,0-40.38,0A5.65,5.65,0,0,1,.2,41.16C.15,41,.17,40.79,0,40.67Z"/>
      <path class="cls-1" d="M28,19.56c-.24,1.14-.49,2.35-.74,3.56Q26,29.26,24.7,35.38c0,.15-.05.29-.09.44a.87.87,0,0,1-1,.69A.85.85,0,0,1,23,35.44q.42-2.1.87-4.17l2.49-11.82c.15-.71.65-1.05,1.21-.8A.84.84,0,0,1,28,19.56Z"/>
      <path class="cls-1" d="M31.12,33a.84.84,0,0,1-.76-.54.82.82,0,0,1,.24-1l1.68-1.43c.91-.78,1.82-1.57,2.75-2.34.25-.21.25-.31,0-.52-1.43-1.2-2.85-2.42-4.28-3.64a1,1,0,0,1-.4-.5.8.8,0,0,1,.31-1,.83.83,0,0,1,1.07.08l2.94,2.5c.79.67,1.58,1.34,2.36,2a.88.88,0,0,1,0,1.55L31.8,32.72A1,1,0,0,1,31.12,33Z"/>
      <path class="cls-1" d="M20.3,33a1.11,1.11,0,0,1-.66-.29l-5.31-4.52a.84.84,0,0,1,0-1.42Q17,24.5,19.67,22.23a.85.85,0,1,1,1.08,1.3c-1.42,1.22-2.84,2.44-4.28,3.64-.28.24-.34.36,0,.63,1.45,1.19,2.87,2.42,4.3,3.63a.91.91,0,0,1,.36.93.8.8,0,0,1-.59.62Z"/>
      <path class="cls-1" d="M6.26,5.84a1,1,0,0,0-1,1,1,1,0,0,0,1,1,1,1,0,0,0,0-2Zm-2.69,1A2.69,2.69,0,1,1,6.22,9.52,2.69,2.69,0,0,1,3.57,6.81Z"/>
      <path class="cls-1" d="M15.48,6.9a1,1,0,0,0-.94-1,1,1,0,0,0-1,.9,1,1,0,1,0,1.94.12Zm-3.65-.05a2.68,2.68,0,1,1,2.68,2.68A2.65,2.65,0,0,1,11.83,6.85Z"/>
      <path class="cls-1" d="M21.79,6.86a1,1,0,1,0,1-1A1,1,0,0,0,21.79,6.86Zm3.65,0A2.68,2.68,0,1,1,22.75,4.2,2.65,2.65,0,0,1,25.44,6.86Z"/>
    </g>
  </g>
</svg>
