<svg xmlns="http://www.w3.org/2000/svg" width="55.08" height="55.08" viewBox="0 0 55.08 55.08">
  <defs>
    <style>
      .cls-1 {
        fill: #ff6c00;
      }
    </style>
  </defs>
  <title>designsmallorange</title>
  <g id="Calque_2" data-name="Calque 2">
    <g id="Calque_3" data-name="Calque 3">
      <path class="cls-1" d="M49.65,11.1c.51-.54,1-1.09,1.5-1.6.26-.26.05-.37-.11-.49s-.26-.47-.58-.14C49.85,9.48,49.3,10.09,49.65,11.1ZM36.1,19l2.11-.61-1.67-1.54C36.39,17.61,36.25,18.26,36.1,19ZM19.69,45.27a1.93,1.93,0,0,0-1.21,1c0,.12.06.16.12.21l2.43,2c.07.06.13.16.27.08A1.84,1.84,0,0,0,22,47.18a5,5,0,0,0-2.27-1.91ZM51.82,4.68c-.09-.07-.18-.12-.26-.19-.47-.44-.94-.89-1.42-1.31s-.66-.9-1-.84-.64.63-1,.94-.18.39,0,.58c.51.45,1,.93,1.5,1.38.29.27.59.73.88.72s.55-.5.82-.78ZM17.28,47.75A.39.39,0,0,0,17,48c-.66.78-1.3,1.57-2,2.34-.16.18-.14.28,0,.42l2.35,2c.19.17.29.16.46,0,.62-.78,1.26-1.55,1.91-2.31.19-.21.19-.32,0-.5-.78-.62-1.54-1.27-2.31-1.91C17.42,47.85,17.34,47.8,17.28,47.75ZM5,45.91c.93,0,1.86,0,2.79,0,.42,0,.48-.12.4-.49a2.72,2.72,0,0,0-2.14-2.21,5.77,5.77,0,0,0-1.55-.06A2.77,2.77,0,0,0,1.85,45.5c-.05.36.06.43.39.42C3.17,45.9,4.1,45.91,5,45.91ZM49.29,7.42a1.54,1.54,0,0,0-.16-.18c-.77-.72-1.56-1.43-2.32-2.16-.22-.2-.3,0-.42.09Q42,10,37.52,14.75c-.18.19-.24.3,0,.51.75.66,1.49,1.35,2.21,2,.22.22.33.14.5,0L49.05,7.7Zm4,29.76L37.94,53.25h15c.44,0,.34-.26.34-.49V37.18Zm-45,5V7.75c0-.16,0-.32,0-.48A2.77,2.77,0,0,0,6.19,4.69a6.83,6.83,0,0,0-1.28-.08A2.89,2.89,0,0,0,1.81,7.7c0,11.31,0,22.62,0,33.93v.56A6.14,6.14,0,0,1,8.27,42.18ZM47.74,12c-.24,0-.31.19-.41.3-2.13,2.3-4.27,4.6-6.39,6.91a1.93,1.93,0,0,1-.93.6c-1.56.45-3.12.91-4.68,1.35-.95.27-1.51-.27-1.3-1.24.31-1.52.64-3,.95-4.57a2.33,2.33,0,0,1,.59-1.17c1.4-1.48,2.78-3,4.17-4.49.12-.14.31-.24.31-.48q-14.8,0-29.55,0c-.42,0-.4.2-.4.49V45.47c0,.34.07.46.43.45,1.81,0,3.62,0,5.44,0a.72.72,0,0,0,.62-.31c.36-.45.72-.9,1.11-1.32A2.69,2.69,0,0,1,21,43.78a10.24,10.24,0,0,1,2.17,1.82.81.81,0,0,0,.68.32q9,0,18.06,0a1,1,0,0,0,.75-.32q2.34-2.49,4.71-4.94a1.11,1.11,0,0,0,.33-.85V12Zm6.69,43.11H35.5c-.8-.59-.84-1-.14-1.79l4.85-5.09.34-.38-.08-.06H24.14c-.23,0-.34,0-.39.31a2.72,2.72,0,0,1-.69,1.25L18.8,54.43a2.27,2.27,0,0,1-.73.65h-.54L13.31,51.6c-.82-.68-.85-1-.16-1.87l1.64-2H14.1c-4.26,0-8.53,0-12.79,0A1.35,1.35,0,0,1,0,47.12V6.47C.18,6.36.15,6.16.2,6a4.67,4.67,0,0,1,2-2.57,5.59,5.59,0,0,1,3.21-.66,4.52,4.52,0,0,1,4.62,4c.07.48.21.59.67.59q15.3,0,30.6,0a1.17,1.17,0,0,0,1-.42q3-3.25,6-6.47A.94.94,0,0,1,49.83.38l3.75,3.47c.59.56.6,1,0,1.62l-.84.91c-.27.3-.74.6-.76.92s.53.56.81.86a2.5,2.5,0,0,0,.24.22c.64.62.66,1,0,1.69q-1.6,1.74-3.22,3.47a1.13,1.13,0,0,0-.33.85q0,11.67,0,23.34v.52l.12.07a2.6,2.6,0,0,1,.25-.33c1.1-1.17,2.22-2.33,3.32-3.51.35-.37.72-.64,1.23-.44s.59.64.59,1.15q0,9.33,0,18.66A1.23,1.23,0,0,1,54.43,55.08Z"/>
      <path class="cls-1" d="M24.29,23.84h6.53l-3-3c-.13-.13-.23-.26-.43-.05Zm3.25,1.88H23.4c-.32,0-.47,0-.47.42,0,2.78,0,5.56,0,8.33,0,.33.08.43.42.43h8.38c.34,0,.41-.11.41-.43,0-2.78,0-5.55,0-8.33,0-.33-.08-.43-.41-.42C30.33,25.73,28.93,25.72,27.54,25.72Zm0,11H15.18a5.82,5.82,0,0,1-.59,0,.88.88,0,0,1-.82-.84.86.86,0,0,1,.67-.92,1.94,1.94,0,0,1,.59-.06c1.88,0,3.76,0,5.64,0,.36,0,.44-.1.44-.44,0-3.1,0-6.2,0-9.3a1.6,1.6,0,0,1,.52-1.24c1.71-1.69,3.4-3.39,5.1-5.09.61-.61,1-.61,1.64,0,1.73,1.72,3.45,3.45,5.18,5.16A1.52,1.52,0,0,1,34,25.13c0,3.08,0,6.16,0,9.24,0,.44.12.53.53.52,1.9,0,3.8,0,5.7,0a1,1,0,0,1,1,.45.9.9,0,0,1-.61,1.37,3.84,3.84,0,0,1-.59,0Z"/>
      <path class="cls-1" d="M28.46,15.59c0,.95,0,.95-.95.95s-.9,0-.9-.9,0-.94.95-.94S28.46,14.7,28.46,15.59Z"/>
      <path class="cls-1" d="M27.51,40.39c-.9,0-.9,0-.9-.89s0-1,.95-1,.9,0,.9.9S28.46,40.39,27.51,40.39Z"/>
      <path class="cls-1" d="M49.57,46.5l-3.08,3.09c.86,0,1.81,0,2.75,0,.25,0,.34-.07.34-.33C49.57,48.31,49.57,47.37,49.57,46.5Zm1.84.82v3c0,.81-.34,1.15-1.15,1.15h-6a1,1,0,0,1-1.08-.61c-.2-.48,0-.82.37-1.14l6.08-6.08a1,1,0,0,1,1.14-.37,1,1,0,0,1,.61,1.09C51.4,45.31,51.41,46.31,51.41,47.32Z"/>
    </g>
  </g>
</svg>
