<svg xmlns="http://www.w3.org/2000/svg" width="174" height="49" viewBox="0 0 174 49">
  <defs>
    <style>
      .cls-1 {
        fill: #fff;
      }
    </style>
  </defs>
  <title>bouton-retour</title>
  <g id="Calque_2" data-name="Calque 2">
    <g id="Calque_3" data-name="Calque 3">
      <path class="cls-1" d="M0,24.5a24.62,24.62,0,0,1,1.86-9.38,25.32,25.32,0,0,1,2.27-4.23,24.71,24.71,0,0,1,6.76-6.76,25.32,25.32,0,0,1,4.23-2.27A24.62,24.62,0,0,1,24.5,0h125a24.62,24.62,0,0,1,9.38,1.86,25.32,25.32,0,0,1,4.23,2.27,24.71,24.71,0,0,1,6.76,6.76,25.32,25.32,0,0,1,2.27,4.23,24.59,24.59,0,0,1,0,18.76,25.32,25.32,0,0,1-2.27,4.23,24.71,24.71,0,0,1-6.76,6.76,25.32,25.32,0,0,1-4.23,2.27A24.62,24.62,0,0,1,149.5,49H24.5a24.62,24.62,0,0,1-9.38-1.86,25.32,25.32,0,0,1-4.23-2.27,24.71,24.71,0,0,1-6.76-6.76,25.32,25.32,0,0,1-2.27-4.23A24.62,24.62,0,0,1,0,24.5Z"/>
    </g>
  </g>
</svg>
