<svg xmlns="http://www.w3.org/2000/svg" width="247.86" height="67.64" viewBox="0 0 247.86 67.64">
  <defs>
    <style>
      .cls-1 {
        fill: #fff;
      }
    </style>
  </defs>
  <title>bouton-seconnecter_1</title>
  <g id="Calque_2" data-name="Calque 2">
    <g id="Calque_4" data-name="Calque 4">
      <path class="cls-1" d="M0,33.82a34,34,0,0,1,.65-6.6,33.57,33.57,0,0,1,1.92-6.34A34.25,34.25,0,0,1,5.7,15,34.14,34.14,0,0,1,15,5.7a34.25,34.25,0,0,1,5.85-3.13A33.57,33.57,0,0,1,27.22.65,34,34,0,0,1,33.82,0H214a33.85,33.85,0,0,1,6.59.65A33.45,33.45,0,0,1,227,2.57a34.25,34.25,0,0,1,5.85,3.13A34.14,34.14,0,0,1,242.16,15a34.2,34.2,0,0,1,3.12,5.85,33.6,33.6,0,0,1,1.93,6.34,33.81,33.81,0,0,1-14.38,34.72,33.62,33.62,0,0,1-12.2,5,33.09,33.09,0,0,1-6.59.65H33.82a33.81,33.81,0,0,1-28.12-15A33.81,33.81,0,0,1,0,33.82Z"/>
    </g>
  </g>
</svg>
