<svg xmlns="http://www.w3.org/2000/svg" width="692" height="84" viewBox="0 0 692 84">
  <defs>
    <style>
      .cls-1 {
        fill: #00dec6;
      }
    </style>
  </defs>
  <title>bouton-suivant_1</title>
  <g id="Calque_2" data-name="Calque 2">
    <g id="Calque_6" data-name="Calque 6">
      <path class="cls-1" d="M0,42a41.66,41.66,0,0,1,.81-8.19A40.93,40.93,0,0,1,3.2,25.93,42,42,0,0,1,25.93,3.2,40.93,40.93,0,0,1,33.81.81,41.66,41.66,0,0,1,42,0H650a41.66,41.66,0,0,1,8.19.81,40.93,40.93,0,0,1,7.88,2.39,42,42,0,0,1,25.12,30.61,41.94,41.94,0,0,1-17.86,43.11A42.06,42.06,0,0,1,650,84H42A41.94,41.94,0,0,1,7.08,65.33,41.48,41.48,0,0,1,3.2,58.07,40.93,40.93,0,0,1,.81,50.19,41.66,41.66,0,0,1,0,42Z"/>
    </g>
  </g>
</svg>
