<svg xmlns="http://www.w3.org/2000/svg" width="692" height="84" viewBox="0 0 692 84">
  <defs>
    <style>
      .cls-1 {
        fill: #fff;
      }
    </style>
  </defs>
  <title>champ</title>
  <g id="Calque_2" data-name="Calque 2">
    <g id="Calque_7" data-name="Calque 7">
      <path class="cls-1" d="M0,61V23a23.33,23.33,0,0,1,.44-4.49,23,23,0,0,1,3.44-8.29,23.14,23.14,0,0,1,6.34-6.34A23,23,0,0,1,18.51.44,23.33,23.33,0,0,1,23,0H669a23.33,23.33,0,0,1,4.49.44,23,23,0,0,1,8.29,3.44,23.14,23.14,0,0,1,6.34,6.34,23,23,0,0,1,3.44,8.29A23.33,23.33,0,0,1,692,23V61a23.33,23.33,0,0,1-.44,4.49,23,23,0,0,1-3.44,8.29,23.14,23.14,0,0,1-6.34,6.34,23,23,0,0,1-8.29,3.44A23.33,23.33,0,0,1,669,84H23a23.33,23.33,0,0,1-4.49-.44,23,23,0,0,1-8.29-3.44,23.14,23.14,0,0,1-6.34-6.34A23,23,0,0,1,.44,65.49,23.33,23.33,0,0,1,0,61Z"/>
    </g>
  </g>
</svg>
