<svg xmlns="http://www.w3.org/2000/svg" width="165.63" height="17.72" viewBox="0 0 165.63 17.72">
  <defs>
    <style>
      .cls-1, .cls-3 {
        fill: none;
        stroke: #ff6c00;
        stroke-width: 3px;
      }

      .cls-1 {
        stroke-linecap: round;
      }

      .cls-2 {
        fill: #fff;
      }

      .cls-4 {
        fill: #ff6c00;
      }
    </style>
  </defs>
  <title>timeline</title>
  <g id="Calque_2" data-name="Calque 2">
    <g id="Calque_5" data-name="Calque 5">
      <line class="cls-1" x1="160.27" y1="9.18" x2="9.27" y2="9.18"/>
      <path class="cls-2" d="M164.13,8.86a7.36,7.36,0,0,1-12.57,5.2,7.35,7.35,0,0,1-2.15-5.2,7.35,7.35,0,0,1,2.15-5.2A7.28,7.28,0,0,1,154,2.06a7.36,7.36,0,0,1,5.63,0A7.17,7.17,0,0,1,162,3.66a7.3,7.3,0,0,1,2.16,5.2Z"/>
      <path class="cls-3" d="M164.13,8.86a7.36,7.36,0,0,1-12.57,5.2,7.35,7.35,0,0,1-2.15-5.2,7.35,7.35,0,0,1,2.15-5.2A7.28,7.28,0,0,1,154,2.06a7.36,7.36,0,0,1,5.63,0A7.17,7.17,0,0,1,162,3.66a7.3,7.3,0,0,1,2.16,5.2Z"/>
      <path class="cls-2" d="M114.82,8.86a7.35,7.35,0,0,1-2.15,5.2,7.43,7.43,0,0,1-2.39,1.6,7.36,7.36,0,0,1-5.63,0,7.43,7.43,0,0,1-2.39-1.6,7.35,7.35,0,0,1-2.15-5.2,7.35,7.35,0,0,1,2.15-5.2,7.35,7.35,0,0,1,5.2-2.16,7.35,7.35,0,0,1,2.82.56,7.37,7.37,0,0,1,4,4A7.17,7.17,0,0,1,114.82,8.86Z"/>
      <path class="cls-3" d="M114.82,8.86a7.35,7.35,0,0,1-2.15,5.2,7.43,7.43,0,0,1-2.39,1.6,7.36,7.36,0,0,1-5.63,0,7.43,7.43,0,0,1-2.39-1.6,7.35,7.35,0,0,1-2.15-5.2,7.35,7.35,0,0,1,2.15-5.2,7.35,7.35,0,0,1,5.2-2.16,7.35,7.35,0,0,1,2.82.56,7.37,7.37,0,0,1,4,4A7.17,7.17,0,0,1,114.82,8.86Z"/>
      <path class="cls-2" d="M65.52,8.86A7.39,7.39,0,0,1,65,11.68a7.21,7.21,0,0,1-1.59,2.38A7.43,7.43,0,0,1,61,15.66a7.35,7.35,0,0,1-8-12,7.17,7.17,0,0,1,2.39-1.6,7.35,7.35,0,0,1,8,1.6A7.21,7.21,0,0,1,65,6,7.35,7.35,0,0,1,65.52,8.86Z"/>
      <path class="cls-3" d="M65.52,8.86A7.39,7.39,0,0,1,65,11.68a7.21,7.21,0,0,1-1.59,2.38A7.43,7.43,0,0,1,61,15.66a7.35,7.35,0,0,1-8-12,7.17,7.17,0,0,1,2.39-1.6,7.35,7.35,0,0,1,8,1.6A7.21,7.21,0,0,1,65,6,7.35,7.35,0,0,1,65.52,8.86Z"/>
      <path class="cls-4" d="M16.22,8.86a7.35,7.35,0,0,1-12.56,5.2,7.23,7.23,0,0,1-1.6-2.38A7.38,7.38,0,0,1,2.06,6a7.46,7.46,0,0,1,4-4,7.38,7.38,0,0,1,5.64,0,7.23,7.23,0,0,1,2.38,1.6,7.3,7.3,0,0,1,2.16,5.2Z"/>
      <path class="cls-3" d="M16.22,8.86a7.35,7.35,0,0,1-12.56,5.2,7.23,7.23,0,0,1-1.6-2.38A7.38,7.38,0,0,1,2.06,6a7.46,7.46,0,0,1,4-4,7.38,7.38,0,0,1,5.64,0,7.23,7.23,0,0,1,2.38,1.6,7.3,7.3,0,0,1,2.16,5.2Z"/>
    </g>
  </g>
</svg>
