<svg xmlns="http://www.w3.org/2000/svg" width="371" height="297" viewBox="0 0 371 297">
  <defs>
    <style>
      .cls-1 {
        fill: #fff;
      }
    </style>
  </defs>
  <title>bouton-souscategorie</title>
  <g id="Calque_2" data-name="Calque 2">
    <g id="Calque_2-2" data-name="Calque 2">
      <path class="cls-1" d="M0,257V40A39.85,39.85,0,0,1,6.74,17.78a40.28,40.28,0,0,1,11-11A40,40,0,0,1,40,0H331a39.85,39.85,0,0,1,22.22,6.74,40.28,40.28,0,0,1,11,11A40,40,0,0,1,371,40V257a39.85,39.85,0,0,1-6.74,22.22,40.28,40.28,0,0,1-11,11A40,40,0,0,1,331,297H40a39.85,39.85,0,0,1-22.22-6.74,40.28,40.28,0,0,1-11-11A40,40,0,0,1,0,257Z"/>
    </g>
  </g>
</svg>
